<svg width="119" height="164" xmlns="http://www.w3.org/2000/svg" xmlns:xlink="http://www.w3.org/1999/xlink"><defs><path d="M.991 11.164C-.616 8.084-.219.036 22.128.036s22.816 8.04 21.137 11.128c-4.538 8.345-17.755 13.909-21.137 13.909-3.381 0-16.783-5.564-21.137-13.91z" id="a"/><linearGradient x1="7.099%" y1="97.881%" x2="91.339%" y2="97.881%" id="e"><stop stop-color="#EAE1F2" offset="0%"/><stop stop-color="#FFB930" offset="42.594%"/><stop stop-color="#FFB930" offset="58.111%"/><stop stop-color="#EAE1F2" offset="100%"/></linearGradient><path d="M-4 11s8 8 27 8 26-8 26-8" id="d"/><filter x="-22%" y="-145.7%" width="144%" height="370.7%" filterUnits="objectBoundingBox" id="c"><feMorphology radius="4" operator="dilate" in="SourceAlpha" result="shadowSpreadOuter1"/><feOffset in="shadowSpreadOuter1" result="shadowOffsetOuter1"/><feMorphology radius="4" in="SourceAlpha" result="shadowInner"/><feOffset in="shadowInner" result="shadowInner"/><feComposite in="shadowOffsetOuter1" in2="shadowInner" operator="out" result="shadowOffsetOuter1"/><feGaussianBlur stdDeviation="2" in="shadowOffsetOuter1" result="shadowBlurOuter1"/><feColorMatrix values="0 0 0 0 1 0 0 0 0 0.941176471 0 0 0 0 0 0 0 0 0.35 0" in="shadowBlurOuter1"/></filter><path d="M12.054 40.8c-1.527-.509-2.782-.927-4.636-1.855-1.855-.927-3.71-1.854-4.355-2.781-4.31-6.193-2.266-13.91-1.373-17.619.892-3.709 2.912-7.955 4.979-11.127 3.021-4.636 5.484-5.303 8.462-6.342.142-.05 3.18-1.076 9.997-1.076s9.855 1.027 9.996 1.076c2.978 1.039 5.166 1.706 8.463 6.342 2.205 3.102 4.086 7.418 4.979 11.127.892 3.71 3.743 11.896-1.374 17.619-.829.927-2.678 1.854-4.538 2.781-1.86.928-3.768 1.566-4.636 1.855-2.782.927-7.419 1.855-12.89 1.855-5.472 0-10.292-.928-13.074-1.855z" id="f"/><linearGradient x1="5.565%" y1="100%" x2="95.867%" y2="100%" id="j"><stop stop-color="#FFDB67" offset="0%"/><stop stop-color="#FFC658" offset="49.444%"/><stop stop-color="#FFCA64" offset="100%"/></linearGradient><path d="M-2 25s8 6 27 6 27.783-7.394 27.783-7.394" id="i"/><filter x="-18.6%" y="-138.3%" width="137.3%" height="360%" filterUnits="objectBoundingBox" id="h"><feMorphology radius="3" operator="dilate" in="SourceAlpha" result="shadowSpreadOuter1"/><feOffset in="shadowSpreadOuter1" result="shadowOffsetOuter1"/><feMorphology radius="3" in="SourceAlpha" result="shadowInner"/><feOffset in="shadowInner" result="shadowInner"/><feComposite in="shadowOffsetOuter1" in2="shadowInner" operator="out" result="shadowOffsetOuter1"/><feGaussianBlur stdDeviation="2" in="shadowOffsetOuter1" result="shadowBlurOuter1"/><feColorMatrix values="0 0 0 0 1 0 0 0 0 0.941176471 0 0 0 0 0 0 0 0 0.5 0" in="shadowBlurOuter1"/></filter><linearGradient x1="39.036%" y1="30.228%" x2="72.171%" y2="94.572%" id="k"><stop stop-color="#FFBF44" offset="0%"/><stop stop-color="#F4B233" offset="100%"/></linearGradient><path d="M61 116c35.033 0 58-25.967 58-58S97.033 0 61 0 3 25.967 3 58s22.967 58 58 58z" id="l"/><filter x="-1.7%" y="-1.7%" width="103.4%" height="103.4%" filterUnits="objectBoundingBox" id="m"><feGaussianBlur stdDeviation="1.5" in="SourceAlpha" result="shadowBlurInner1"/><feOffset dy="1" in="shadowBlurInner1" result="shadowOffsetInner1"/><feComposite in="shadowOffsetInner1" in2="SourceAlpha" operator="arithmetic" k2="-1" k3="1" result="shadowInnerInner1"/><feColorMatrix values="0 0 0 0 1 0 0 0 0 0.946338592 0 0 0 0 0.661714804 0 0 0 0.5 0" in="shadowInnerInner1"/></filter><linearGradient x1="50%" y1="45.284%" x2="50%" y2="117.181%" id="p"><stop stop-color="#FFF" offset="0%"/><stop stop-color="#FDFFFF" offset="100%"/></linearGradient><path d="M107.906 51.055C109.326 54.44 110 58.728 110 64.16 110 87.95 88.062 109 61 109S12 87.95 12 64.16c0-5.446.677-9.743 2.106-13.132C17.377 39.536 28.809 31 42.322 31c6.824 0 13.47 3.173 18.678 7.185C66.208 34.228 72.794 31 79.678 31c13.574 0 24.979 8.55 28.228 20.055z" id="o"/><filter x="-9.2%" y="-11.5%" width="118.4%" height="123.1%" filterUnits="objectBoundingBox" id="n"><feOffset in="SourceAlpha" result="shadowOffsetOuter1"/><feGaussianBlur stdDeviation="3" in="shadowOffsetOuter1" result="shadowBlurOuter1"/><feComposite in="shadowBlurOuter1" in2="SourceAlpha" operator="out" result="shadowBlurOuter1"/><feColorMatrix values="0 0 0 0 1 0 0 0 0 0.941176471 0 0 0 0 0 0 0 0 0.75 0" in="shadowBlurOuter1"/></filter><path d="M36.66 68.413c0-1.885 1.715-3.413 3.836-3.413h.327c2.118 0 3.836 1.53 3.836 3.413v15.174c0 1.885-1.716 3.413-3.836 3.413h-.327c-2.119 0-3.837-1.53-3.837-3.413V68.413z" id="r"/><filter x="-56.2%" y="-20.5%" width="212.5%" height="140.9%" filterUnits="objectBoundingBox" id="q"><feOffset in="SourceAlpha" result="shadowOffsetOuter1"/><feGaussianBlur stdDeviation="1.5" in="shadowOffsetOuter1" result="shadowBlurOuter1"/><feColorMatrix values="0 0 0 0 1 0 0 0 0 0.733333333 0 0 0 0 0 0 0 0 0.55 0" in="shadowBlurOuter1"/></filter><linearGradient x1="0%" y1="50%" x2="49.006%" y2="80.932%" id="s"><stop stop-color="#7B6359" offset="0%"/><stop stop-color="#665249" offset="100%"/></linearGradient><path d="M74.726 80.903a2.25 2.25 0 0 1-.692.097 2.022 2.022 0 0 1-1.758-.947 1.756 1.756 0 0 1-.276-.959c-.007-.786.49-1.5 1.247-1.795a28.03 28.03 0 0 1 2.733-1.667c2.188-1.175 4.516-2.095 6.844-2.795 1.402-.421 2.506-.679 3.17-.8 1.12-.205 2.212.46 2.436 1.483.224 1.023-.503 2.019-1.624 2.224-.112.02-.351.07-.7.15a32.872 32.872 0 0 0-2.354.646c1.385.053 2.757.158 4.104.306a38.18 38.18 0 0 1 2.518.346c1.085.199 1.797 1.204 1.59 2.246-.206 1.042-1.253 1.726-2.338 1.528a20 20 0 0 0-.564-.09 42.965 42.965 0 0 0-1.66-.214c-4.142-.454-8.559-.467-12.676.241z" id="u"/><filter x="-15%" y="-33.3%" width="130%" height="166.7%" filterUnits="objectBoundingBox" id="t"><feOffset in="SourceAlpha" result="shadowOffsetOuter1"/><feGaussianBlur stdDeviation="1" in="shadowOffsetOuter1" result="shadowBlurOuter1"/><feColorMatrix values="0 0 0 0 1 0 0 0 0 0.733333333 0 0 0 0 0 0 0 0 0.55 0" in="shadowBlurOuter1"/></filter></defs><g fill="none" fill-rule="evenodd"><path d="M67.972 124.742c-1.927.464-2.136 1.712-.453 2.78 0 0 25.361 16.603 35.077 17.453 9.716.85 19.76-27.176 10.045-28.027-9.716-.85-44.67 7.794-44.67 7.794zm-15.778 0c1.927.464 2.135 1.712.452 2.78 0 0-25.36 16.603-35.077 17.453-9.716.85-19.76-27.176-10.044-28.027 9.715-.85 44.669 7.794 44.669 7.794z" fill="#E7ECF3" fill-opacity=".75"/><g transform="translate(39 138)"><mask id="b" fill="#fff"><use xlink:href="#a"/></mask><use fill="#FFBF44" xlink:href="#a"/><g mask="url(#b)"><use fill="#000" filter="url(#c)" xlink:href="#d"/><use stroke="url(#e)" stroke-width="8" xlink:href="#d"/></g></g><g transform="translate(36 113)"><mask id="g" fill="#fff"><use xlink:href="#f"/></mask><use fill="#F99C00" xlink:href="#f"/><g opacity=".504" mask="url(#g)"><use fill="#000" filter="url(#h)" xlink:href="#i"/><use stroke="url(#j)" stroke-width="6" xlink:href="#i"/></g></g><path d="M17.887 103.992a2.321 2.321 0 0 1-.14.006C8.2 104.08 2.305 101.868.52 96.836c-1.75-4.93 1.13-9.686 5.441-11.989A65.65 65.65 0 0 0 7.8 89.011c-2.354 1.41-3.825 3.97-2.99 6.32.783 2.21 3.788 3.66 9.276 4.044a62.278 62.278 0 0 0 3.802 4.617z" fill="#755E55"/><g transform="translate(0 9)"><use fill="url(#k)" xlink:href="#l"/><use fill="#000" filter="url(#m)" xlink:href="#l"/></g><g transform="translate(0 9)"><use fill="#000" filter="url(#n)" xlink:href="#o"/><path stroke="#FFE16B" stroke-width="2" d="M106.983 51.442l-.04-.115C103.763 40.062 92.593 32 79.678 32c-6.015 0-12.285 2.584-18.073 6.98l-.61.464-.605-.467C54.713 34.605 48.345 32 42.322 32c-12.867 0-24.054 8.06-27.254 19.302l-.04.114C13.663 54.65 13 58.81 13 64.16 13 87.717 34.837 108 61 108s48-20.283 48-43.84c0-5.337-.66-9.487-2.017-12.718z" stroke-linejoin="square" fill="url(#p)"/></g><use fill="#000" filter="url(#q)" xlink:href="#r"/><use fill="#FAB228" xlink:href="#r"/><path d="M64.3 121.683c-1.5.694-1.75 2.19-.533 3.324 0 0 8.896 8.993 14.21 8.993s8.65-18 3.335-18c-5.314 0-17.012 5.683-17.012 5.683zm-5.6 0c1.5.694 1.75 2.19.533 3.324 0 0-8.896 8.993-14.21 8.993s-8.65-18-3.335-18c5.314 0 17.012 5.683 17.012 5.683z" fill="#333"/><path d="M108.766 112.933c-1.349-1.665-3.985 1.775-10.562 7.1-6.577 5.327-10.815 10.994-9.467 12.66 1.349 1.665 7.774-1.303 14.35-6.628 6.577-5.326 7.027-11.467 5.679-13.132zm-95.448 0c1.349-1.665 3.985 1.775 10.562 7.1 6.577 5.327 10.815 10.994 9.466 12.66-1.348 1.665-7.773-1.303-14.35-6.628-6.576-5.326-7.027-11.467-5.678-13.132z" fill="#FFC148"/><path d="M103.5 19c3.667-2.98 5.5-6.31 5.5-9.986C109 3.499 106.538 0 103.5 0S98 3.499 98 9.014c0 3.677 1.833 7.005 5.5 9.986z" fill="url(#s)"/><path d="M103.5 19c3.667-2.98 5.5-6.31 5.5-9.986C109 3.499 106.538 0 103.5 0S98 3.499 98 9.014c0 3.677 1.833 7.005 5.5 9.986zm-85 0c3.667-2.98 5.5-6.31 5.5-9.986C24 3.499 21.538 0 18.5 0S13 3.499 13 9.014c0 3.677 1.833 7.005 5.5 9.986z" fill="url(#s)"/><g fill-rule="nonzero"><use fill="#000" filter="url(#t)" xlink:href="#u"/><use fill="#FAB228" xlink:href="#u"/></g><rect stroke="#FFF" stroke-width="3" fill="#755E55" x="13" y="94" width="18" height="15" rx="7.5"/></g></svg>